<?xml version="1.0" encoding="utf-8"?>
<!-- Svg Vector Icons : http://www.onlinewebfonts.com/icon -->
<!DOCTYPE svg PUBLIC "-//W3C//DTD SVG 1.1//EN" "http://www.w3.org/Graphics/SVG/1.1/DTD/svg11.dtd">
<svg version="1.1" xmlns="http://www.w3.org/2000/svg" xmlns:xlink="http://www.w3.org/1999/xlink" x="0px" y="0px" viewBox="0 0 256 256" enable-background="new 0 0 256 256" xml:space="preserve">
<metadata> Svg Vector Icons : http://www.onlinewebfonts.com/icon </metadata>
<g><g><path fill="#000000" d="M10,170.9c0.2-1.1,0.4-2.2,0.7-3.3c2.3-9.2,10-15,20-15c36.6,0,73.3,0,109.9,0c0.7,0,1.4,0,2.2,0c0-0.7,0-1.3,0-1.8c0-16.4,0-32.8,0-49.2c0-5.3,2.3-9.3,7-11.7c7.1-3.6,16.4,1.3,17.2,9.3c0.1,1.3,0.2,2.5,0.2,3.8c0,15.9,0,31.9,0,47.9c0,0.5,0,1,0,1.8c0.7,0,1.2,0,1.7,0c18.8,0,37.5,0,56.3,0c4.8,0,9.2,1.2,13,4.2c4.6,3.7,7.4,8.5,7.5,14.5c0.2,10.5,0.1,21.1,0.1,31.6c0,8.2,0.1,16.4-0.1,24.6c-0.2,9.3-8.1,17.5-17.4,18.3c-0.5,0-1,0.2-1.5,0.2c-66,0-132,0-198,0c-0.3-0.1-0.7-0.2-1-0.2c-8.8-0.8-15.8-7.1-17.5-15.8c-0.2-0.8-0.3-1.6-0.5-2.4C10,208.7,10,189.8,10,170.9z M46.9,211.6c6.7,0,12.4-5.6,12.4-12.3c0-6.7-5.5-12.2-12.3-12.3c-6.7-0.1-12.3,5.4-12.4,12.2C34.5,205.9,40.1,211.6,46.9,211.6z M91,211.6c6.7,0.1,12.3-5.2,12.5-12.1c0.2-6.6-5.3-12.3-12.1-12.5c-6.8-0.2-12.5,5.3-12.5,12.2C78.9,206.1,84.2,211.4,91,211.6z"/><path fill="#000000" d="M153.7,9.9c28.1,0.5,50.6,10.3,68.6,29.8c11.9,12.9,19.3,28.2,22.4,45.6c0.9,5.4,1.5,10.9,1.3,16.4c-0.3,6.3-5.2,11-11.6,11.5c-5.7,0.4-11.4-3.9-12.5-9.7c-0.5-2.6-0.4-5.3-0.6-8c-1-12.6-5.3-24-12.8-34c-10.2-13.7-23.8-22.3-40.6-25.6c-33.1-6.4-65.1,12.4-75.8,44.3c-2,6-3.1,12.2-3.3,18.6c-0.1,2.9-0.2,5.8-1.8,8.4c-2.6,4.2-6.5,6.3-11.4,6c-5.3-0.4-8.9-3.2-10.7-8.2c-1.2-3.3-0.7-6.8-0.5-10.2c0.7-11.2,3.4-21.8,8.2-31.9c7.9-16.9,19.9-30.2,35.8-39.8c10.2-6.2,21.3-10.2,33.1-11.9C146,10.4,150.6,10.2,153.7,9.9z"/><path fill="#000000" d="M154.2,49.2c20.9,0.9,36.2,9.7,46.1,27.1c4.3,7.5,6.3,15.7,6.3,24.3c0,9.9-10.1,15.7-18.6,10.7c-4-2.4-5.8-6.2-5.9-10.8c-0.1-6.1-2.1-11.5-5.8-16.3c-9.8-12.9-30-13.8-40.9-1.9c-4.7,5.1-7.2,11-7.4,18c-0.1,4.7-1.8,8.7-6.1,11.1c-8.5,4.8-18.5-0.9-18.4-10.8c0.1-12.8,4.4-24.1,12.8-33.7c7.5-8.5,16.8-14,27.9-16.4C147.8,49.8,151.4,49.6,154.2,49.2z"/></g></g>
</svg>